<?xml version="1.0" encoding="UTF-8" standalone="no"?><!DOCTYPE svg PUBLIC "-//W3C//DTD SVG 1.1//EN" "http://www.w3.org/Graphics/SVG/1.1/DTD/svg11.dtd"><svg width="100%" height="100%" viewBox="0 0 160 160" version="1.1" xmlns="http://www.w3.org/2000/svg" xmlns:xlink="http://www.w3.org/1999/xlink" xml:space="preserve" xmlns:serif="http://www.serif.com/" style="fill-rule:evenodd;clip-rule:evenodd;stroke-linejoin:round;stroke-miterlimit:2;"><rect id="SSLogo-Light-vertical" x="0" y="0" width="160" height="160" style="fill:none;"/><g id="SSLogo-Light-vertical1" serif:id="SSLogo-Light-vertical"><path d="M116.681,26.719c-9.788,-9.799 -22.817,-15.196 -36.688,-15.196c-28.609,-0 -51.885,23.276 -51.885,51.885c-0,0 -0.008,0.946 0.042,2.104c0.038,1.269 0.168,2.609 0.168,2.609l49.766,0l5.983,5.983c2.124,2.125 2.124,5.582 -0,7.707c-1.03,1.029 -2.398,1.596 -3.854,1.596c-1.455,-0 -2.824,-0.567 -3.853,-1.596l-5.233,-5.234l-6.627,6.626l5.234,5.234c2.799,2.799 6.521,4.341 10.479,4.341c3.959,-0 7.68,-1.542 10.48,-4.341c5.778,-5.778 5.778,-15.18 -0,-20.959l-5.213,-5.213l0.004,-0.004l-9.55,-9.55c-1.03,-1.029 -1.596,-2.398 -1.596,-3.853c-0,-1.456 0.566,-2.824 1.596,-3.853c1.029,-1.03 2.397,-1.596 3.853,-1.596c1.456,-0 2.824,0.566 3.853,1.596l5.234,5.233l6.626,-6.626l-5.234,-5.233c-2.799,-2.8 -6.52,-4.341 -10.479,-4.341c-3.959,-0 -7.68,1.541 -10.479,4.34c-2.8,2.8 -4.341,6.521 -4.341,10.48c-0,3.664 1.322,7.123 3.738,9.837l-30.911,0c1.131,-10.188 5.922,-19.607 13.543,-26.59c7.852,-7.193 18.029,-11.156 28.656,-11.156c11.351,0 22.013,4.417 30.023,12.437l0.003,0.002l6.666,-6.666l-0.004,-0.003Z" style="fill-rule:nonzero;"/><path d="M108.663,94.71c-7.852,7.194 -18.029,11.156 -28.656,11.156c-11.351,0 -22.013,-4.416 -30.023,-12.436l-0.003,-0.003l-6.666,6.666l0.004,0.003c9.788,9.8 22.817,15.197 36.688,15.197c28.609,-0 51.885,-23.277 51.885,-51.886c0,0 0.008,-0.946 -0.041,-2.103c-0.039,-1.269 -0.169,-2.61 -0.169,-2.61l-34.353,-0l9.426,9.426l15.451,0c-1.131,10.188 -5.922,19.607 -13.543,26.59" style="fill:#038af9;fill-rule:nonzero;"/><path d="M7.704,148.449c-4.246,-0 -7.563,-2.109 -7.704,-6.101l5.117,-0c0.141,1.518 1.097,2.249 2.446,2.249c1.406,0 2.306,-0.703 2.306,-1.856c-0,-3.655 -9.869,-1.687 -9.813,-8.687c0,-3.74 3.065,-5.82 7.198,-5.82c4.301,-0 7.198,2.136 7.394,5.904l-5.201,-0c-0.085,-1.265 -0.984,-2.025 -2.277,-2.053c-1.153,-0.028 -2.025,0.563 -2.025,1.8c0,3.43 9.756,1.883 9.756,8.491c0,3.317 -2.586,6.073 -7.197,6.073" style="fill-rule:nonzero;"/><path d="M32.641,148.252l-4.807,-0l-0,-2.137c-0.956,1.35 -2.643,2.306 -4.752,2.306c-3.627,-0 -6.073,-2.503 -6.073,-6.692l0,-9.166l4.78,0l-0,8.519c-0,2.137 1.209,3.318 3.008,3.318c1.856,0 3.037,-1.181 3.037,-3.318l-0,-8.519l4.807,0l0,15.689Z" style="fill-rule:nonzero;"/><path d="M42.763,136.528c-1.8,-0 -3.43,1.349 -3.43,3.852c-0,2.502 1.63,3.908 3.43,3.908c1.827,-0 3.43,-1.378 3.43,-3.88c-0,-2.503 -1.603,-3.88 -3.43,-3.88m-1.406,-4.189c2.333,-0 3.992,1.068 4.836,2.446l-0,-2.222l4.808,0l-0,15.689l-4.808,-0l-0,-2.221c-0.872,1.378 -2.531,2.446 -4.864,2.446c-3.824,0 -6.888,-3.149 -6.888,-8.097c-0,-4.949 3.064,-8.041 6.916,-8.041" style="fill-rule:nonzero;"/><path d="M75.404,139.733c-0,-2.052 -1.181,-3.177 -3.008,-3.177c-1.828,-0 -3.009,1.125 -3.009,3.177l0,8.519l-4.78,0l0,-8.519c0,-2.052 -1.18,-3.177 -3.008,-3.177c-1.827,-0 -3.008,1.125 -3.008,3.177l-0,8.519l-4.808,0l-0,-15.689l4.808,0l-0,1.968c0.928,-1.265 2.53,-2.136 4.583,-2.136c2.361,-0 4.273,1.04 5.342,2.924c1.04,-1.659 3.008,-2.924 5.285,-2.924c3.88,-0 6.383,2.474 6.383,6.691l-0,9.166l-4.78,0l-0,-8.519Z" style="fill-rule:nonzero;"/><path d="M82.854,132.564l4.807,-0l0,15.688l-4.807,0l-0,-15.688Zm-0.45,-4.218c-0,-1.462 1.152,-2.615 2.867,-2.615c1.687,0 2.84,1.153 2.84,2.615c-0,1.434 -1.153,2.587 -2.84,2.587c-1.715,-0 -2.867,-1.153 -2.867,-2.587" style="fill-rule:nonzero;"/><path d="M97.586,148.449c-4.246,-0 -7.563,-2.109 -7.704,-6.101l5.117,-0c0.141,1.518 1.097,2.249 2.446,2.249c1.406,0 2.306,-0.703 2.306,-1.856c-0,-3.655 -9.869,-1.687 -9.813,-8.687c0,-3.74 3.065,-5.82 7.198,-5.82c4.301,-0 7.198,2.136 7.394,5.904l-5.201,-0c-0.084,-1.265 -0.984,-2.025 -2.277,-2.053c-1.153,-0.028 -2.025,0.563 -2.025,1.8c0,3.43 9.756,1.883 9.756,8.491c0,3.317 -2.586,6.073 -7.197,6.073" style="fill-rule:nonzero;"/><path d="M107.032,132.564l4.808,-0l-0,15.688l-4.808,0l0,-15.688Zm-0.45,-4.218c0,-1.462 1.153,-2.615 2.868,-2.615c1.687,0 2.84,1.153 2.84,2.615c-0,1.434 -1.153,2.587 -2.84,2.587c-1.715,-0 -2.868,-1.153 -2.868,-2.587" style="fill-rule:nonzero;"/><path d="M114.623,127.446l4.808,0l-0,7.226c0.956,-1.35 2.671,-2.277 4.836,-2.277c3.57,-0 5.96,2.474 5.96,6.691l0,9.166l-4.779,0l-0,-8.519c-0,-2.137 -1.181,-3.318 -3.009,-3.318c-1.827,0 -3.008,1.181 -3.008,3.318l-0,8.519l-4.808,0l0,-20.806Z" style="fill-rule:nonzero;"/><path d="M140.236,136.528c-1.8,-0 -3.43,1.349 -3.43,3.852c-0,2.502 1.63,3.908 3.43,3.908c1.827,-0 3.43,-1.378 3.43,-3.88c-0,-2.503 -1.603,-3.88 -3.43,-3.88m-1.406,-4.189c2.333,-0 3.992,1.068 4.836,2.446l-0,-2.222l4.808,0l-0,15.689l-4.808,-0l-0,-2.221c-0.872,1.378 -2.531,2.446 -4.864,2.446c-3.824,0 -6.888,-3.149 -6.888,-8.097c-0,-4.949 3.064,-8.041 6.916,-8.041" style="fill-rule:nonzero;"/><path d="M152.015,136.556l-1.912,-0l0,-3.993l1.912,0l0,-3.823l4.808,-0l-0,3.823l3.149,0l-0,3.993l-3.149,-0l-0,6.298c-0,0.928 0.394,1.321 1.462,1.321l1.715,0l0,4.077l-2.446,0c-3.261,0 -5.539,-1.378 -5.539,-5.454l0,-6.242Z" style="fill-rule:nonzero;"/></g></svg>