<?xml version="1.0" encoding="UTF-8" standalone="no"?><!DOCTYPE svg PUBLIC "-//W3C//DTD SVG 1.1//EN" "http://www.w3.org/Graphics/SVG/1.1/DTD/svg11.dtd"><svg width="100%" height="100%" viewBox="0 0 139 15" version="1.1" xmlns="http://www.w3.org/2000/svg" xmlns:xlink="http://www.w3.org/1999/xlink" xml:space="preserve" xmlns:serif="http://www.serif.com/" style="fill-rule:evenodd;clip-rule:evenodd;stroke-linejoin:round;stroke-miterlimit:2;"><g id="SuamiSihat_Logotype_URL_Horizontal_White"><path d="M4.599,12.475c-2.325,0 -4.142,-1.138 -4.219,-3.293l2.802,-0c0.077,0.819 0.601,1.214 1.34,1.214c0.77,-0 1.263,-0.379 1.263,-1.002c-0,-1.973 -5.405,-0.911 -5.374,-4.69c-0,-2.018 1.678,-3.142 3.941,-3.142c2.356,0 3.942,1.154 4.05,3.188l-2.849,-0c-0.046,-0.683 -0.538,-1.093 -1.247,-1.108c-0.631,-0.016 -1.109,0.303 -1.109,0.971c0,1.852 5.343,1.017 5.343,4.584c0,1.791 -1.416,3.278 -3.941,3.278Zm13.657,-0.106l-2.633,0l0,-1.153c-0.523,0.728 -1.448,1.244 -2.602,1.244c-1.986,-0 -3.326,-1.351 -3.326,-3.612l-0,-4.948l2.618,-0l-0,4.599c-0,1.153 0.661,1.791 1.647,1.791c1.016,-0 1.663,-0.638 1.663,-1.791l0,-4.599l2.633,-0l-0,8.469Zm4.773,-8.591c1.278,0 2.186,0.577 2.648,1.321l0,-1.199l2.634,-0l-0,8.469l-2.634,0l0,-1.199c-0.477,0.744 -1.385,1.321 -2.663,1.321c-2.095,-0 -3.773,-1.701 -3.773,-4.371c0,-2.672 1.678,-4.342 3.788,-4.342Zm0.77,2.262c-0.985,0 -1.879,0.728 -1.879,2.08c0,1.35 0.894,2.109 1.879,2.109c1,-0 1.878,-0.744 1.878,-2.095c0,-1.35 -0.878,-2.094 -1.878,-2.094Zm17.876,1.73c-0,-1.108 -0.647,-1.715 -1.648,-1.715c-1,0 -1.647,0.607 -1.647,1.715l-0,4.599l-2.618,-0l0,-4.599c0,-1.108 -0.647,-1.715 -1.647,-1.715c-1.001,0 -1.648,0.607 -1.648,1.715l0,4.599l-2.633,-0l0,-8.469l2.633,-0l0,1.063c0.508,-0.684 1.386,-1.154 2.51,-1.154c1.293,0 2.34,0.561 2.926,1.578c0.569,-0.895 1.647,-1.578 2.894,-1.578c2.125,0 3.495,1.335 3.495,3.612l0,4.948l-2.617,-0l-0,-4.599Zm3.833,-6.147c0,-0.789 0.632,-1.412 1.571,-1.412c0.924,0 1.555,0.623 1.555,1.412c0,0.774 -0.631,1.397 -1.555,1.397c-0.939,-0 -1.571,-0.623 -1.571,-1.397Zm0.247,2.277l2.633,0l-0,8.469l-2.633,0l-0,-8.469Zm8.068,8.575c-2.326,0 -4.142,-1.138 -4.219,-3.293l2.802,-0c0.077,0.819 0.601,1.214 1.34,1.214c0.77,-0 1.263,-0.379 1.263,-1.002c-0,-1.973 -5.405,-0.911 -5.374,-4.69c-0,-2.018 1.678,-3.142 3.941,-3.142c2.356,0 3.942,1.154 4.05,3.188l-2.849,-0c-0.046,-0.683 -0.538,-1.093 -1.247,-1.108c-0.631,-0.016 -1.108,0.303 -1.108,0.971c-0,1.852 5.342,1.017 5.342,4.584c0,1.791 -1.416,3.278 -3.941,3.278Zm4.927,-10.852c-0,-0.789 0.631,-1.412 1.57,-1.412c0.924,0 1.556,0.623 1.556,1.412c-0,0.774 -0.632,1.397 -1.556,1.397c-0.939,-0 -1.57,-0.623 -1.57,-1.397Zm0.246,2.277l2.633,0l-0,8.469l-2.633,0l0,-8.469Zm4.157,-2.763l2.633,0l0,3.901c0.523,-0.728 1.463,-1.229 2.649,-1.229c1.955,0 3.264,1.335 3.264,3.612l-0,4.948l-2.618,-0l0,-4.599c0,-1.153 -0.646,-1.791 -1.647,-1.791c-1.001,0 -1.648,0.638 -1.648,1.791l0,4.599l-2.633,-0l0,-11.232Zm13.257,2.641c1.278,0 2.187,0.577 2.648,1.321l0,-1.199l2.634,-0l-0,8.469l-2.634,0l0,-1.199c-0.477,0.744 -1.385,1.321 -2.663,1.321c-2.094,-0 -3.772,-1.701 -3.772,-4.371c-0,-2.672 1.678,-4.342 3.787,-4.342Zm0.77,2.262c-0.986,0 -1.879,0.728 -1.879,2.08c0,1.35 0.893,2.109 1.879,2.109c1.001,-0 1.878,-0.744 1.878,-2.095c0,-1.35 -0.877,-2.094 -1.878,-2.094Zm6.451,0.015l-1.047,0l0,-2.155l1.047,-0l-0,-2.064l2.633,-0l-0,2.064l1.725,-0l-0,2.155l-1.725,0l-0,3.4c-0,0.501 0.216,0.714 0.8,0.714l0.94,-0l0,2.2l-1.339,0c-1.787,0 -3.034,-0.744 -3.034,-2.944l-0,-3.37Z" style="fill:#fff;"/><path d="M89.64,11.32c0,-0.597 0.478,-1.067 1.187,-1.067c0.697,0 1.175,0.47 1.175,1.067c-0,0.584 -0.478,1.054 -1.175,1.054c-0.709,0 -1.187,-0.47 -1.187,-1.054Zm29.036,-0c-0,-0.597 0.476,-1.067 1.186,-1.067c0.698,0 1.175,0.47 1.175,1.067c-0,0.584 -0.477,1.054 -1.175,1.054c-0.71,0 -1.186,-0.47 -1.186,-1.054Zm-22.512,1.185c-1.922,0 -3.438,-1.495 -3.438,-3.39c-0,-1.872 1.481,-3.367 3.392,-3.367c1.644,-0 3.069,1.05 3.405,2.66l-1.946,-0c-0.277,-0.594 -0.776,-0.891 -1.435,-0.891c-0.927,-0 -1.483,0.753 -1.483,1.609c-0,0.89 0.59,1.61 1.529,1.61c0.637,-0 1.1,-0.297 1.389,-0.845l1.957,0c-0.371,1.553 -1.748,2.614 -3.37,2.614Zm7.296,-0.011c-1.968,-0 -3.462,-1.427 -3.462,-3.368c0,-1.94 1.494,-3.367 3.462,-3.367c1.968,0 3.462,1.427 3.462,3.367c0,1.941 -1.494,3.368 -3.462,3.368Zm0,-4.966c-0.891,0 -1.54,0.742 -1.54,1.598c0,0.856 0.649,1.599 1.54,1.599c0.892,-0 1.54,-0.743 1.54,-1.599c0,-0.856 -0.648,-1.598 -1.54,-1.598Zm12.206,4.772l0,-3.367c0,-0.697 -0.092,-1.405 -0.984,-1.405c-0.857,0 -1.065,0.594 -1.065,1.313l-0,3.459l-1.922,-0l-0,-3.448c-0,-0.65 -0.151,-1.324 -0.962,-1.324c-0.892,0 -1.089,0.663 -1.089,1.405l0,3.367l-1.922,-0l0,-6.335l1.795,-0l0,0.673l0.023,0c0.371,-0.651 1.043,-0.89 1.772,-0.89c0.834,0 1.459,0.411 1.853,1.129c0.463,-0.718 1.17,-1.129 2.038,-1.129c0.636,0 1.239,0.182 1.69,0.639c0.73,0.731 0.695,1.484 0.695,2.454l0,3.459l-1.922,-0Zm14.279,-0l0,-3.367c0,-0.697 -0.092,-1.405 -0.984,-1.405c-0.856,0 -1.065,0.594 -1.065,1.313l0,3.459l-1.923,-0l0,-3.448c0,-0.65 -0.15,-1.324 -0.961,-1.324c-0.891,0 -1.088,0.663 -1.088,1.405l-0,3.367l-1.922,-0l-0,-6.335l1.795,-0l-0,0.673l0.023,0c0.37,-0.651 1.042,-0.89 1.772,-0.89c0.833,0 1.459,0.411 1.852,1.129c0.464,-0.718 1.169,-1.129 2.038,-1.129c0.637,0 1.239,0.182 1.691,0.639c0.73,0.731 0.695,1.484 0.695,2.454l-0,3.459l-1.923,-0Zm5.363,2.111l-2.037,0l1.018,-2.431l-2.385,-6.015l2.049,-0l1.286,3.675l0.023,-0l1.228,-3.675l2.037,-0l-3.219,8.446Z" style="fill:#038afa;"/></g></svg>