<?xml version="1.0" encoding="UTF-8" standalone="no"?><!DOCTYPE svg PUBLIC "-//W3C//DTD SVG 1.1//EN" "http://www.w3.org/Graphics/SVG/1.1/DTD/svg11.dtd"><svg width="100%" height="100%" viewBox="0 0 120 120" version="1.1" xmlns="http://www.w3.org/2000/svg" xmlns:xlink="http://www.w3.org/1999/xlink" xml:space="preserve" xmlns:serif="http://www.serif.com/" style="fill-rule:evenodd;clip-rule:evenodd;stroke-linejoin:round;stroke-miterlimit:2;"><rect id="apple-touch-icon" x="0" y="0" width="120" height="120" style="fill:#fff;"/><g id="SSLogo-Dark-vertical"><path d="M88.954,31.04c-7.726,-7.735 -18.011,-11.995 -28.959,-11.995c-22.583,-0 -40.956,18.373 -40.956,40.955c0,0 -0.006,0.747 0.033,1.661c0.031,1.001 0.133,2.06 0.133,2.06l39.282,-0l4.723,4.722c1.677,1.677 1.677,4.406 -0,6.083c-0.813,0.813 -1.893,1.26 -3.042,1.26c-1.149,0 -2.229,-0.447 -3.041,-1.26l-4.131,-4.131l-5.23,5.231l4.13,4.131c2.21,2.209 5.148,3.426 8.272,3.426c3.125,-0 6.063,-1.217 8.272,-3.426c4.561,-4.561 4.561,-11.983 0,-16.544l-4.115,-4.115l0.004,-0.003l-7.539,-7.539c-0.812,-0.812 -1.26,-1.892 -1.26,-3.041c0,-1.149 0.448,-2.229 1.26,-3.041c0.813,-0.813 1.893,-1.26 3.042,-1.26c1.149,-0 2.229,0.447 3.041,1.26l4.131,4.13l5.231,-5.23l-4.131,-4.131c-2.21,-2.209 -5.147,-3.426 -8.272,-3.426c-3.125,-0 -6.063,1.217 -8.272,3.426c-2.21,2.21 -3.426,5.147 -3.426,8.272c-0,2.892 1.044,5.623 2.951,7.765l-24.4,0c0.893,-8.042 4.675,-15.476 10.69,-20.988c6.198,-5.679 14.231,-8.807 22.62,-8.807c8.959,0 17.376,3.487 23.698,9.817l0.002,0.002l5.262,-5.262l-0.003,-0.002Z" style="fill:#1c1c1c;fill-rule:nonzero;"/><path d="M82.625,84.708c-6.198,5.678 -14.231,8.806 -22.619,8.806c-8.96,0 -17.376,-3.486 -23.699,-9.816l-0.002,-0.003l-5.262,5.262l0.003,0.003c7.726,7.735 18.011,11.995 28.96,11.995c22.582,0 40.955,-18.373 40.955,-40.956c-0,0 0.006,-0.746 -0.033,-1.66c-0.031,-1.001 -0.133,-2.06 -0.133,-2.06l-27.117,0l7.441,7.441l12.196,-0c-0.893,8.042 -4.675,15.476 -10.69,20.988" style="fill:#038af9;fill-rule:nonzero;"/></g></svg>