<?xml version="1.0" encoding="UTF-8" standalone="no"?>
<!DOCTYPE svg PUBLIC "-//W3C//DTD SVG 1.1//EN" "http://www.w3.org/Graphics/SVG/1.1/DTD/svg11.dtd">
<svg width="100%" height="100%" viewBox="0 0 1024 1024" version="1.1" xmlns="http://www.w3.org/2000/svg" xmlns:xlink="http://www.w3.org/1999/xlink" xml:space="preserve" xmlns:serif="http://www.serif.com/" style="fill-rule:evenodd;clip-rule:evenodd;stroke-linejoin:round;stroke-miterlimit:2;">
    <g transform="matrix(2.44539,0,0,2.44539,-277.318,-0.00146724)">
        <g id="SSLogo-Dark-vertical">
            <g transform="matrix(1,0,0,1,470.777,266.529)">
                <path d="M0,-205.216C-39.492,-244.754 -92.063,-266.528 -148.027,-266.528C-263.458,-266.528 -357.371,-172.616 -357.371,-57.185C-357.371,-57.185 -357.402,-53.369 -357.202,-48.698C-357.045,-43.579 -356.523,-38.169 -356.523,-38.169L-155.732,-38.169L-131.592,-14.03C-123.02,-5.457 -123.02,8.491 -131.592,17.064C-135.746,21.217 -141.266,23.503 -147.139,23.503C-153.012,23.503 -158.533,21.217 -162.686,17.064L-183.801,-4.051L-210.536,22.683L-189.421,43.798C-178.127,55.093 -163.111,61.312 -147.139,61.312C-131.167,61.312 -116.152,55.093 -104.858,43.798C-81.544,20.485 -81.544,-17.45 -104.858,-40.764L-125.891,-61.797L-125.874,-61.814L-164.406,-100.346C-168.559,-104.499 -170.846,-110.02 -170.846,-115.892C-170.846,-121.765 -168.559,-127.286 -164.406,-131.439C-160.253,-135.592 -154.732,-137.878 -148.859,-137.878C-142.986,-137.878 -137.466,-135.592 -133.312,-131.439L-112.197,-110.324L-85.463,-137.058L-106.578,-158.173C-117.871,-169.468 -132.887,-175.687 -148.859,-175.687C-164.831,-175.687 -179.847,-169.468 -191.14,-158.174C-202.435,-146.88 -208.655,-131.864 -208.655,-115.892C-208.655,-101.11 -203.318,-87.153 -193.57,-76.201L-318.289,-76.201C-313.724,-117.308 -294.395,-155.309 -263.648,-183.484C-231.967,-212.508 -190.906,-228.496 -148.027,-228.496C-102.229,-228.496 -59.21,-210.676 -26.894,-178.318L-26.883,-178.307L0.013,-205.203L0,-205.216Z" style="fill:rgb(28,28,28);fill-rule:nonzero;"/>
            </g>
            <g transform="matrix(1,0,0,1,438.426,273.367)">
                <path d="M0,62.27C-31.681,91.294 -72.742,107.282 -115.62,107.282C-161.418,107.282 -204.437,89.463 -236.753,57.104L-236.765,57.093L-263.661,83.989L-263.648,84.002C-224.155,123.54 -171.585,145.315 -115.62,145.315C-0.189,145.315 93.723,51.402 93.723,-64.029C93.723,-64.029 93.754,-67.845 93.555,-72.516C93.398,-77.635 92.875,-83.045 92.875,-83.045L-45.732,-83.045L-7.7,-45.012L54.641,-45.012C50.076,-3.906 30.747,34.095 0,62.27" style="fill:rgb(28,28,28);fill-rule:nonzero;"/>
            </g>
        </g>
    </g>
</svg>
