<?xml version="1.0" encoding="UTF-8" standalone="no"?><!DOCTYPE svg PUBLIC "-//W3C//DTD SVG 1.1//EN" "http://www.w3.org/Graphics/SVG/1.1/DTD/svg11.dtd"><svg width="100%" height="100%" viewBox="0 0 16 16" version="1.1" xmlns="http://www.w3.org/2000/svg" xmlns:xlink="http://www.w3.org/1999/xlink" xml:space="preserve" xmlns:serif="http://www.serif.com/" style="fill-rule:evenodd;clip-rule:evenodd;stroke-linejoin:round;stroke-miterlimit:2;"><rect id="favicon-SSD" x="0" y="1" width="16" height="16" style="fill:none;"/><g id="suamisihat-icon" serif:id="suamisihat icon"><path d="M12.484,4.515c-1.196,-1.198 -2.789,-1.858 -4.485,-1.858c-3.497,0 -6.343,2.846 -6.343,6.343c0,0 -0.001,0.116 0.005,0.257c0.005,0.155 0.021,0.319 0.021,0.319l6.084,0l0.731,0.732c0.26,0.259 0.26,0.682 0,0.942c-0.126,0.126 -0.293,0.195 -0.471,0.195c-0.178,-0 -0.345,-0.069 -0.471,-0.195l-0.64,-0.64l-0.81,0.81l0.64,0.64c0.342,0.342 0.797,0.53 1.281,0.53c0.484,0 0.939,-0.188 1.281,-0.53c0.706,-0.707 0.706,-1.856 0,-2.562l-0.637,-0.638l0,-0l-1.167,-1.168c-0.126,-0.125 -0.195,-0.293 -0.195,-0.471c-0,-0.178 0.069,-0.345 0.195,-0.471c0.126,-0.126 0.293,-0.195 0.471,-0.195c0.178,0 0.345,0.069 0.471,0.195l0.64,0.64l0.81,-0.81l-0.64,-0.64c-0.342,-0.342 -0.797,-0.53 -1.281,-0.53c-0.484,-0 -0.939,0.188 -1.281,0.53c-0.342,0.342 -0.531,0.797 -0.531,1.281c0,0.448 0.162,0.871 0.457,1.203l-3.779,-0c0.139,-1.246 0.724,-2.397 1.656,-3.251c0.96,-0.879 2.204,-1.363 3.503,-1.363c1.388,-0 2.691,0.539 3.67,1.52l0.001,0l0.815,-0.815l-0.001,-0Z" style="fill:#fff;fill-rule:nonzero;"/><path d="M11.504,12.827c-0.96,0.879 -2.204,1.363 -3.503,1.363c-1.388,0 -2.691,-0.539 -3.67,-1.52l-0.001,-0l-0.815,0.815l0.001,0c1.196,1.198 2.789,1.858 4.485,1.858c3.497,-0 6.343,-2.846 6.343,-6.343c-0,-0 0.001,-0.116 -0.005,-0.257c-0.005,-0.155 -0.021,-0.319 -0.021,-0.319l-4.2,-0l1.153,1.152l1.889,0c-0.139,1.246 -0.724,2.397 -1.656,3.251" style="fill:#038af9;fill-rule:nonzero;"/></g></svg>