<?xml version="1.0" encoding="UTF-8" standalone="no"?><!DOCTYPE svg PUBLIC "-//W3C//DTD SVG 1.1//EN" "http://www.w3.org/Graphics/SVG/1.1/DTD/svg11.dtd"><svg width="100%" height="100%" viewBox="0 0 250 59" version="1.1" xmlns="http://www.w3.org/2000/svg" xmlns:xlink="http://www.w3.org/1999/xlink" xml:space="preserve" xmlns:serif="http://www.serif.com/" style="fill-rule:evenodd;clip-rule:evenodd;stroke-linejoin:round;stroke-miterlimit:2;"><g id="SSLogo-Dark"><g id="suamisihat-icon" serif:id="suamisihat icon"><path d="M49.142,8.992c-5.431,-5.437 -12.66,-8.431 -20.355,-8.431c-15.873,0 -28.787,12.914 -28.787,28.787c0,-0 -0.004,0.525 0.023,1.167c0.022,0.704 0.094,1.448 0.094,1.448l27.61,-0l3.32,3.319c1.178,1.179 1.178,3.097 -0,4.276c-0.571,0.571 -1.33,0.885 -2.138,0.885c-0.808,0 -1.567,-0.314 -2.138,-0.885l-2.903,-2.904l-3.677,3.677l2.904,2.903c1.553,1.553 3.618,2.408 5.814,2.408c2.196,0 4.261,-0.855 5.814,-2.408c3.206,-3.206 3.206,-8.422 -0,-11.628l-2.892,-2.892l0.002,-0.003l-5.298,-5.298c-0.571,-0.571 -0.886,-1.33 -0.886,-2.138c0,-0.808 0.315,-1.567 0.886,-2.138c0.571,-0.571 1.33,-0.885 2.137,-0.885c0.808,-0 1.567,0.314 2.138,0.885l2.904,2.904l3.676,-3.677l-2.903,-2.903c-1.553,-1.553 -3.618,-2.408 -5.815,-2.408c-2.196,-0 -4.261,0.855 -5.814,2.408c-1.553,1.553 -2.408,3.618 -2.408,5.814c-0,2.033 0.734,3.952 2.074,5.458l-17.15,-0c0.628,-5.653 3.286,-10.878 7.514,-14.753c4.356,-3.99 10.003,-6.189 15.899,-6.189c6.297,-0 12.213,2.45 16.657,6.9l0.001,0.001l3.699,-3.698l-0.002,-0.002Z" style="fill:#fff;fill-rule:nonzero;"/><path d="M44.693,46.714c-4.356,3.992 -10.002,6.19 -15.899,6.19c-6.297,-0 -12.213,-2.451 -16.656,-6.9l-0.002,-0.001l-3.698,3.698l0.001,0.002c5.431,5.437 12.66,8.431 20.355,8.431c15.873,-0 28.787,-12.914 28.787,-28.787c0,0 0.004,-0.525 -0.023,-1.167c-0.022,-0.704 -0.094,-1.448 -0.094,-1.448l-19.059,0l5.23,5.23l8.572,0c-0.628,5.653 -3.286,10.878 -7.514,14.752" style="fill:#038af9;fill-rule:nonzero;"/></g><path d="M81.009,39.957c-4.711,0 -8.393,-2.34 -8.549,-6.77l5.678,0c0.156,1.685 1.217,2.496 2.715,2.496c1.559,0 2.558,-0.78 2.558,-2.059c-0,-4.056 -10.951,-1.872 -10.888,-9.64c-0,-4.149 3.4,-6.458 7.987,-6.458c4.772,0 7.986,2.371 8.205,6.552l-5.772,-0c-0.094,-1.404 -1.092,-2.247 -2.527,-2.278c-1.279,-0.031 -2.246,0.624 -2.246,1.997c-0,3.806 10.825,2.09 10.825,9.421c0,3.682 -2.87,6.739 -7.986,6.739" style="fill:#fff;fill-rule:nonzero;"/><path d="M108.68,39.739l-5.335,-0l0,-2.371c-1.06,1.497 -2.932,2.558 -5.272,2.558c-4.024,0 -6.739,-2.776 -6.739,-7.425l-0,-10.17l5.304,-0l-0,9.452c-0,2.372 1.341,3.682 3.338,3.682c2.059,-0 3.369,-1.31 3.369,-3.682l0,-9.452l5.335,-0l0,17.408Z" style="fill:#fff;fill-rule:nonzero;"/><path d="M119.911,26.729c-1.997,0 -3.806,1.498 -3.806,4.275c-0,2.776 1.809,4.336 3.806,4.336c2.028,0 3.806,-1.529 3.806,-4.305c-0,-2.777 -1.778,-4.306 -3.806,-4.306m-1.56,-4.648c2.589,-0 4.43,1.185 5.366,2.714l-0,-2.464l5.335,-0l-0,17.408l-5.335,-0l-0,-2.465c-0.967,1.529 -2.808,2.715 -5.397,2.715c-4.243,-0 -7.644,-3.495 -7.644,-8.985c0,-5.491 3.401,-8.923 7.675,-8.923" style="fill:#fff;fill-rule:nonzero;"/><path d="M156.13,30.286c0,-2.277 -1.31,-3.525 -3.338,-3.525c-2.028,-0 -3.338,1.248 -3.338,3.525l0,9.453l-5.304,-0l0,-9.453c0,-2.277 -1.31,-3.525 -3.338,-3.525c-2.028,-0 -3.338,1.248 -3.338,3.525l-0,9.453l-5.335,-0l0,-17.408l5.335,-0l-0,2.183c1.03,-1.404 2.808,-2.371 5.085,-2.371c2.621,0 4.742,1.155 5.928,3.245c1.154,-1.841 3.338,-3.245 5.865,-3.245c4.305,0 7.082,2.746 7.082,7.425l0,10.171l-5.304,-0l0,-9.453Z" style="fill:#fff;fill-rule:nonzero;"/><path d="M164.397,22.331l5.335,-0l-0,17.408l-5.335,0l-0,-17.408Zm-0.5,-4.68c0,-1.622 1.28,-2.901 3.182,-2.901c1.872,-0 3.151,1.279 3.151,2.901c0,1.591 -1.279,2.87 -3.151,2.87c-1.902,-0 -3.182,-1.279 -3.182,-2.87" style="fill:#fff;fill-rule:nonzero;"/><path d="M180.744,39.957c-4.711,0 -8.393,-2.34 -8.548,-6.77l5.678,0c0.156,1.685 1.216,2.496 2.714,2.496c1.56,0 2.558,-0.78 2.558,-2.059c0,-4.056 -10.95,-1.872 -10.888,-9.64c-0,-4.149 3.4,-6.458 7.987,-6.458c4.773,0 7.986,2.371 8.205,6.552l-5.772,-0c-0.094,-1.404 -1.092,-2.247 -2.527,-2.278c-1.279,-0.031 -2.246,0.624 -2.246,1.997c-0,3.806 10.825,2.09 10.825,9.421c0,3.682 -2.87,6.739 -7.986,6.739" style="fill:#fff;fill-rule:nonzero;"/><path d="M191.226,22.331l5.335,-0l-0,17.408l-5.335,0l-0,-17.408Zm-0.5,-4.68c0,-1.622 1.279,-2.901 3.183,-2.901c1.872,-0 3.15,1.279 3.15,2.901c0,1.591 -1.278,2.87 -3.15,2.87c-1.904,-0 -3.183,-1.279 -3.183,-2.87" style="fill:#fff;fill-rule:nonzero;"/><path d="M199.649,16.653l5.335,-0l-0,8.017c1.06,-1.497 2.964,-2.527 5.366,-2.527c3.962,0 6.614,2.746 6.614,7.425l-0,10.171l-5.304,-0l-0,-9.453c-0,-2.371 -1.31,-3.681 -3.338,-3.681c-2.028,-0 -3.338,1.31 -3.338,3.681l-0,9.453l-5.335,-0l-0,-23.086Z" style="fill:#fff;fill-rule:nonzero;"/><path d="M228.069,26.729c-1.997,0 -3.806,1.498 -3.806,4.275c-0,2.776 1.809,4.336 3.806,4.336c2.028,0 3.806,-1.529 3.806,-4.305c0,-2.777 -1.778,-4.306 -3.806,-4.306m-1.56,-4.648c2.59,-0 4.43,1.185 5.366,2.714l0,-2.464l5.335,-0l0,17.408l-5.335,-0l0,-2.465c-0.967,1.529 -2.808,2.715 -5.397,2.715c-4.243,-0 -7.643,-3.495 -7.643,-8.985c-0,-5.491 3.4,-8.923 7.674,-8.923" style="fill:#fff;fill-rule:nonzero;"/><path d="M241.14,26.761l-2.122,-0l0,-4.43l2.122,-0l-0,-4.243l5.335,-0l-0,4.243l3.494,-0l0,4.43l-3.494,-0l-0,6.988c-0,1.029 0.436,1.466 1.622,1.466l1.903,0l-0,4.524l-2.714,-0c-3.619,-0 -6.146,-1.529 -6.146,-6.052l-0,-6.926Z" style="fill:#fff;fill-rule:nonzero;"/></g></svg>