<?xml version="1.0" encoding="UTF-8"?><svg id="Layer_2" xmlns="http://www.w3.org/2000/svg" viewBox="0 0 497.14 114.49"><defs><style>.cls-1{fill:#038afa;}.cls-1,.cls-2{stroke-width:0px;}.cls-2{fill:#020202;}</style></defs><g id="Layer_1-2"><path class="cls-2" d="M97.72,16.77C86.92,5.95,72.55,0,57.24,0,25.68,0,0,25.68,0,57.24c0,0,0,1.04.05,2.32.04,1.4.19,2.88.19,2.88h54.91l6.6,6.6c2.34,2.34,2.34,6.16,0,8.5-1.14,1.14-2.65,1.76-4.25,1.76s-3.12-.63-4.25-1.76l-5.77-5.77-7.31,7.31,5.77,5.77c3.09,3.09,7.19,4.79,11.56,4.79s8.47-1.7,11.56-4.79c6.38-6.38,6.38-16.75,0-23.12l-5.75-5.75h0s-10.54-10.54-10.54-10.54c-1.14-1.14-1.76-2.65-1.76-4.25s.63-3.12,1.76-4.25c1.14-1.14,2.65-1.76,4.25-1.76s3.12.63,4.25,1.76l5.77,5.77,7.31-7.31-5.77-5.77c-3.09-3.09-7.19-4.79-11.56-4.79s-8.47,1.7-11.56,4.79c-3.09,3.09-4.79,7.19-4.79,11.56,0,4.04,1.46,7.86,4.13,10.85H10.69c1.25-11.24,6.53-21.63,14.94-29.34,8.66-7.94,19.89-12.31,31.62-12.31,12.52,0,24.29,4.87,33.12,13.72h0s7.35-7.35,7.35-7.35h0Z"/><path class="cls-1" d="M88.88,91.78c-8.66,7.94-19.89,12.31-31.62,12.31-12.52,0-24.29-4.87-33.12-13.72h0s-7.35,7.35-7.35,7.35h0c10.8,10.82,25.17,16.77,40.48,16.77,31.56,0,57.24-25.68,57.24-57.24,0,0,0-1.04-.05-2.32-.04-1.4-.19-2.88-.19-2.88h-37.9l10.4,10.4h17.05c-1.25,11.24-6.53,21.63-14.94,29.34Z"/><path class="cls-2" d="M161.09,78.34c-9.37,0-16.69-4.65-17-13.46h11.29c.31,3.35,2.42,4.96,5.4,4.96s5.09-1.55,5.09-4.09c0-8.07-21.78-3.72-21.65-19.17,0-8.25,6.76-12.84,15.88-12.84s15.88,4.71,16.32,13.03h-11.48c-.19-2.79-2.17-4.47-5.02-4.53-2.54-.06-4.47,1.24-4.47,3.97,0,7.57,21.53,4.16,21.53,18.74,0,7.32-5.71,13.4-15.88,13.4Z"/><path class="cls-2" d="M216.12,77.91h-10.61v-4.71c-2.11,2.98-5.83,5.09-10.48,5.09-8,0-13.4-5.52-13.4-14.77v-20.22h10.55v18.8c0,4.71,2.67,7.32,6.64,7.32s6.7-2.61,6.7-7.32v-18.8h10.61v34.62Z"/><path class="cls-2" d="M235.35,42.79c5.15,0,8.81,2.36,10.67,5.4v-4.9h10.61v34.62h-10.61v-4.9c-1.92,3.04-5.58,5.4-10.73,5.4-8.44,0-15.2-6.95-15.2-17.87s6.76-17.74,15.26-17.74ZM238.45,52.04c-3.97,0-7.57,2.98-7.57,8.5s3.6,8.62,7.57,8.62,7.57-3.04,7.57-8.56-3.54-8.56-7.57-8.56Z"/><path class="cls-2" d="M310.48,59.11c0-4.53-2.61-7.01-6.64-7.01s-6.64,2.48-6.64,7.01v18.8h-10.55v-18.8c0-4.53-2.61-7.01-6.64-7.01s-6.64,2.48-6.64,7.01v18.8h-10.61v-34.62h10.61v4.34c2.05-2.79,5.58-4.71,10.11-4.71,5.21,0,9.43,2.3,11.79,6.45,2.3-3.66,6.64-6.45,11.66-6.45,8.56,0,14.08,5.46,14.08,14.77v20.22h-10.55v-18.8Z"/><path class="cls-2" d="M325.92,33.98c0-3.23,2.54-5.77,6.33-5.77s6.27,2.54,6.27,5.77-2.54,5.71-6.27,5.71-6.33-2.54-6.33-5.71ZM326.91,43.29h10.61v34.62h-10.61v-34.62Z"/><path class="cls-2" d="M359.42,78.34c-9.37,0-16.69-4.65-17-13.46h11.29c.31,3.35,2.42,4.96,5.4,4.96s5.09-1.55,5.09-4.09c0-8.07-21.78-3.72-21.65-19.17,0-8.25,6.76-12.84,15.88-12.84s15.88,4.71,16.32,13.03h-11.48c-.19-2.79-2.17-4.47-5.02-4.53-2.54-.06-4.47,1.24-4.47,3.97,0,7.57,21.53,4.16,21.53,18.74,0,7.32-5.71,13.4-15.88,13.4Z"/><path class="cls-2" d="M379.27,33.98c0-3.23,2.54-5.77,6.33-5.77s6.27,2.54,6.27,5.77-2.54,5.71-6.27,5.71-6.33-2.54-6.33-5.71ZM380.27,43.29h10.61v34.62h-10.61v-34.62Z"/><path class="cls-2" d="M397.02,32h10.61v15.94c2.11-2.98,5.89-5.03,10.67-5.03,7.88,0,13.15,5.46,13.15,14.77v20.22h-10.55v-18.8c0-4.72-2.61-7.32-6.64-7.32s-6.64,2.61-6.64,7.32v18.8h-10.61V32Z"/><path class="cls-2" d="M450.43,42.79c5.15,0,8.81,2.36,10.67,5.4v-4.9h10.61v34.62h-10.61v-4.9c-1.92,3.04-5.58,5.4-10.73,5.4-8.44,0-15.2-6.95-15.2-17.87s6.76-17.74,15.26-17.74ZM453.53,52.04c-3.97,0-7.57,2.98-7.57,8.5s3.6,8.62,7.57,8.62,7.57-3.04,7.57-8.56-3.54-8.56-7.57-8.56Z"/><path class="cls-2" d="M479.52,52.1h-4.22v-8.81h4.22v-8.44h10.61v8.44h6.95v8.81h-6.95v13.9c0,2.05.87,2.92,3.23,2.92h3.78v9h-5.4c-7.2,0-12.22-3.04-12.22-12.04v-13.77Z"/></g></svg>