<?xml version="1.0" encoding="UTF-8" standalone="no"?><!DOCTYPE svg PUBLIC "-//W3C//DTD SVG 1.1//EN" "http://www.w3.org/Graphics/SVG/1.1/DTD/svg11.dtd"><svg width="100%" height="100%" viewBox="0 0 100 15" version="1.1" xmlns="http://www.w3.org/2000/svg" xmlns:xlink="http://www.w3.org/1999/xlink" xml:space="preserve" xmlns:serif="http://www.serif.com/" style="fill-rule:evenodd;clip-rule:evenodd;stroke-linejoin:round;stroke-miterlimit:2;"><g id="SuamiSihat_Logotype_Horizontal_Black"><path d="M4.815,14.198c-2.654,0 -4.727,-1.318 -4.815,-3.813l3.198,0c0.088,0.949 0.685,1.406 1.529,1.406c0.878,0 1.441,-0.439 1.441,-1.16c-0,-2.284 -6.168,-1.054 -6.133,-5.43c0,-2.337 1.915,-3.637 4.499,-3.637c2.688,-0 4.498,1.335 4.621,3.69l-3.251,0c-0.053,-0.791 -0.615,-1.265 -1.423,-1.283c-0.721,-0.017 -1.265,0.352 -1.265,1.125c-0,2.144 6.097,1.177 6.097,5.307c0,2.073 -1.616,3.795 -4.498,3.795" style="fill:#020202;fill-rule:nonzero;"/><path d="M20.401,14.075l-3.005,0l-0,-1.335c-0.597,0.843 -1.652,1.441 -2.97,1.441c-2.266,-0 -3.795,-1.564 -3.795,-4.182l-0,-5.729l2.987,0l-0,5.324c-0,1.336 0.756,2.074 1.88,2.074c1.16,-0 1.898,-0.738 1.898,-2.074l-0,-5.324l3.005,0l-0,9.805Z" style="fill:#020202;fill-rule:nonzero;"/><path d="M26.727,6.748c-1.125,-0 -2.144,0.843 -2.144,2.407c-0,1.564 1.019,2.443 2.144,2.443c1.142,-0 2.143,-0.861 2.143,-2.425c0,-1.564 -1.001,-2.425 -2.143,-2.425m-0.879,-2.619c1.459,0 2.495,0.668 3.022,1.529l0,-1.388l3.005,0l0,9.805l-3.005,0l0,-1.388c-0.544,0.861 -1.581,1.529 -3.04,1.529c-2.389,0 -4.305,-1.968 -4.305,-5.061c0,-3.093 1.916,-5.026 4.323,-5.026" style="fill:#020202;fill-rule:nonzero;"/><path d="M47.127,8.751c0,-1.283 -0.738,-1.986 -1.88,-1.986c-1.142,0 -1.88,0.703 -1.88,1.986l0,5.324l-2.987,0l-0,-5.324c-0,-1.283 -0.738,-1.986 -1.881,-1.986c-1.142,0 -1.88,0.703 -1.88,1.986l0,5.324l-3.005,0l0,-9.805l3.005,-0l0,1.23c0.58,-0.791 1.582,-1.335 2.864,-1.335c1.476,-0 2.671,0.65 3.339,1.827c0.65,-1.037 1.88,-1.827 3.304,-1.827c2.425,-0 3.989,1.546 3.989,4.182l-0,5.728l-2.988,0l0,-5.324Z" style="fill:#020202;fill-rule:nonzero;"/><path d="M51.783,4.27l3.005,0l0,9.805l-3.005,0l0,-9.805Zm-0.281,-2.636c0,-0.914 0.721,-1.634 1.793,-1.634c1.054,0 1.774,0.72 1.774,1.634c0,0.896 -0.72,1.617 -1.774,1.617c-1.072,-0 -1.793,-0.721 -1.793,-1.617" style="fill:#020202;fill-rule:nonzero;"/><path d="M60.991,14.198c-2.653,0 -4.727,-1.318 -4.815,-3.813l3.198,0c0.088,0.949 0.686,1.406 1.529,1.406c0.879,0 1.441,-0.439 1.441,-1.16c0,-2.284 -6.168,-1.054 -6.133,-5.43c0,-2.337 1.916,-3.637 4.499,-3.637c2.688,-0 4.498,1.335 4.622,3.69l-3.251,0c-0.053,-0.791 -0.615,-1.265 -1.424,-1.283c-0.72,-0.017 -1.265,0.352 -1.265,1.125c0,2.144 6.098,1.177 6.098,5.307c-0,2.073 -1.617,3.795 -4.499,3.795" style="fill:#020202;fill-rule:nonzero;"/><path d="M66.895,4.27l3.005,0l-0,9.805l-3.005,0l0,-9.805Zm-0.281,-2.636c-0,-0.914 0.72,-1.634 1.792,-1.634c1.055,0 1.775,0.72 1.775,1.634c-0,0.896 -0.72,1.617 -1.775,1.617c-1.072,-0 -1.792,-0.721 -1.792,-1.617" style="fill:#020202;fill-rule:nonzero;"/><path d="M71.639,1.072l3.005,-0l0,4.516c0.598,-0.844 1.67,-1.424 3.023,-1.424c2.231,0 3.725,1.547 3.725,4.183l0,5.728l-2.987,0l-0,-5.324c-0,-1.336 -0.738,-2.073 -1.88,-2.073c-1.143,-0 -1.881,0.737 -1.881,2.073l0,5.324l-3.005,0l0,-13.003Z" style="fill:#020202;fill-rule:nonzero;"/><path d="M87.647,6.748c-1.124,-0 -2.144,0.843 -2.144,2.407c0,1.564 1.02,2.443 2.144,2.443c1.143,-0 2.144,-0.861 2.144,-2.425c0,-1.564 -1.001,-2.425 -2.144,-2.425m-0.878,-2.619c1.458,0 2.495,0.668 3.022,1.529l0,-1.388l3.005,0l0,9.805l-3.005,0l0,-1.388c-0.545,0.861 -1.581,1.529 -3.04,1.529c-2.39,0 -4.305,-1.968 -4.305,-5.061c0,-3.093 1.915,-5.026 4.323,-5.026" style="fill:#020202;fill-rule:nonzero;"/><path d="M95.009,6.765l-1.194,0l-0,-2.495l1.194,0l0,-2.39l3.005,0l0,2.39l1.969,0l-0,2.495l-1.969,0l0,3.937c0,0.579 0.246,0.825 0.914,0.825l1.072,0l0,2.548l-1.529,0c-2.038,0 -3.462,-0.861 -3.462,-3.409l0,-3.901Z" style="fill:#020202;fill-rule:nonzero;"/></g></svg>