<?xml version="1.0" encoding="UTF-8" standalone="no"?><!DOCTYPE svg PUBLIC "-//W3C//DTD SVG 1.1//EN" "http://www.w3.org/Graphics/SVG/1.1/DTD/svg11.dtd"><svg width="100%" height="100%" viewBox="0 0 540 540" version="1.1" xmlns="http://www.w3.org/2000/svg" xmlns:xlink="http://www.w3.org/1999/xlink" xml:space="preserve" xmlns:serif="http://www.serif.com/" style="fill-rule:evenodd;clip-rule:evenodd;stroke-linejoin:round;stroke-miterlimit:2;"><rect id="SuamiSihat_Logomark_FullColor" x="0" y="0" width="540" height="540" style="fill:none;"/><g id="SuamiSihat_Logomark_FullColor1" serif:id="SuamiSihat_Logomark_FullColor"><g id="suamisihat-icon" serif:id="suamisihat icon"><path d="M401.124,138.83c-34.99,-35.034 -81.566,-54.33 -131.15,-54.33c-102.269,0 -185.472,83.217 -185.472,185.502c-0,0 -0.028,3.383 0.148,7.521c0.14,4.536 0.602,9.331 0.602,9.331l177.897,-0l21.388,21.389c7.593,7.597 7.593,19.956 -0,27.552c-3.681,3.681 -8.571,5.707 -13.775,5.707c-5.205,-0 -10.095,-2.026 -13.775,-5.707l-18.707,-18.709l-23.687,23.689l18.709,18.71c10.004,10.008 23.309,15.519 37.46,15.519c14.15,-0 27.455,-5.511 37.459,-15.519c20.656,-20.659 20.656,-54.273 -0,-74.932l-18.634,-18.636l0.016,-0.016l-34.139,-34.144c-3.68,-3.681 -5.706,-8.572 -5.706,-13.775c0,-5.205 2.026,-10.096 5.706,-13.777c3.679,-3.679 8.571,-5.707 13.773,-5.707c5.205,0 10.095,2.028 13.775,5.707l18.707,18.71l23.687,-23.69l-18.707,-18.71c-10.006,-10.007 -23.309,-15.519 -37.462,-15.519c-14.15,0 -27.453,5.512 -37.459,15.519c-10.008,10.008 -15.518,23.313 -15.518,37.467c-0,13.098 4.728,25.465 13.366,35.17l-110.5,0c4.045,-36.426 21.171,-70.097 48.411,-95.065c28.069,-25.718 64.448,-39.886 102.437,-39.886c40.577,0 78.691,15.791 107.321,44.463l0.01,0.01l23.831,-23.832l-0.012,-0.012Z" style="fill:#020202;fill-rule:nonzero;"/><path d="M372.461,381.913c-28.069,25.72 -64.446,39.886 -102.437,39.886c-40.577,-0 -78.689,-15.791 -107.321,-44.463l-0.01,-0.01l-23.829,23.832l0.01,0.012c34.99,35.036 81.566,54.33 131.15,54.33c102.269,0 185.474,-83.217 185.474,-185.502c0,-0 0.028,-3.381 -0.15,-7.52c-0.138,-4.537 -0.602,-9.33 -0.602,-9.33l-122.802,0l33.696,33.702l55.232,-0c-4.045,36.424 -21.169,70.097 -48.411,95.063" style="fill:#038af9;fill-rule:nonzero;"/></g></g></svg>