<?xml version="1.0" encoding="UTF-8" standalone="no"?><!DOCTYPE svg PUBLIC "-//W3C//DTD SVG 1.1//EN" "http://www.w3.org/Graphics/SVG/1.1/DTD/svg11.dtd"><svg width="100%" height="100%" viewBox="0 0 540 541" version="1.1" xmlns="http://www.w3.org/2000/svg" xmlns:xlink="http://www.w3.org/1999/xlink" xml:space="preserve" xmlns:serif="http://www.serif.com/" style="fill-rule:evenodd;clip-rule:evenodd;stroke-miterlimit:10;"><rect id="SuamiSihat_Logo-blueprint" x="0" y="0.008" width="540" height="540" style="fill:none;"/><g><path d="M375.307,164.57c-27.921,-27.953 -65.086,-43.346 -104.652,-43.346c-81.609,-0 -148.003,66.394 -148.003,148.001c-0,0 -0.023,2.699 0.119,6.001c0.11,3.618 0.48,7.443 0.48,7.443l141.957,0l17.066,17.066c6.059,6.061 6.059,15.922 0,21.983c-2.936,2.937 -6.839,4.552 -10.992,4.552c-4.152,0 -8.055,-1.615 -10.991,-4.552l-14.929,-14.928l-18.9,18.901l14.929,14.927c7.984,7.986 18.6,12.384 29.891,12.384c11.292,-0 21.908,-4.398 29.892,-12.384c16.482,-16.482 16.482,-43.301 0,-59.783l-14.869,-14.87l0.011,-0.013l-27.24,-27.241c-2.937,-2.935 -4.554,-6.839 -4.554,-10.991c-0,-4.152 1.617,-8.055 4.554,-10.991c2.936,-2.936 6.839,-4.553 10.99,-4.553c4.152,-0 8.055,1.617 10.991,4.553l14.929,14.927l18.9,-18.9l-14.927,-14.929c-7.984,-7.984 -18.6,-12.381 -29.893,-12.381c-11.292,-0 -21.908,4.397 -29.892,12.381c-7.984,7.985 -12.382,18.601 -12.382,29.893c0,10.452 3.772,20.318 10.664,28.061l-88.173,0c3.228,-29.061 16.892,-55.928 38.629,-75.847c22.398,-20.519 51.428,-31.823 81.743,-31.823c32.377,0 62.791,12.599 85.639,35.475l0.008,0.008l19.015,-19.015l-0.01,-0.009Z" style="fill:#d1d3d4;fill-rule:nonzero;"/><path d="M352.436,358.513c-22.398,20.52 -51.428,31.822 -81.741,31.822c-32.379,0 -62.794,-12.597 -85.64,-35.475l-0.008,-0.008l-19.015,19.015l0.008,0.01c27.922,27.953 65.089,43.347 104.655,43.347c81.607,0 148.001,-66.394 148.001,-148.003c0,0 0.023,-2.697 -0.119,-6c-0.11,-3.619 -0.48,-7.444 -0.48,-7.444l-97.992,0l26.887,26.89l44.075,-0c-3.228,29.061 -16.894,55.926 -38.631,75.846" style="fill:#ededed;fill-rule:nonzero;"/><path d="M441.522,98.378l-344.359,344.359m338.153,-350.394l-344.273,344.273m285.003,-374.26l-314.053,314.055m340.395,-303.013l-328.589,328.59m392.698,-264.481l-328.589,328.59m339.253,-301.35l-314.055,314.053m284.459,-374.208l-344.273,344.273m315.408,-179.642c-0,81.752 -66.273,148.025 -148.026,148.025c-81.752,0 -148.025,-66.273 -148.025,-148.025c-0,-81.751 66.273,-148.024 148.025,-148.024c81.753,-0 148.026,66.273 148.026,148.024Zm-26.893,-0c0,66.901 -54.233,121.134 -121.133,121.134c-66.9,0 -121.133,-54.233 -121.133,-121.134c0,-66.901 54.233,-121.134 121.133,-121.134c66.9,0 121.133,54.233 121.133,121.134Zm-79.615,-41.605c0,23.317 -18.903,42.219 -42.219,42.219c-23.319,-0 -42.22,-18.902 -42.22,-42.219c-0,-23.318 18.901,-42.22 42.22,-42.22c23.316,0 42.219,18.902 42.219,42.22Zm-26.591,0.115c0,8.584 -6.958,15.543 -15.544,15.543c-8.584,-0 -15.543,-6.959 -15.543,-15.543c0,-8.584 6.959,-15.543 15.543,-15.543c8.586,0 15.544,6.959 15.544,15.543Zm27.922,83.046c-0,23.318 -18.902,42.22 -42.22,42.22c-23.317,-0 -42.22,-18.902 -42.22,-42.22c-0,-23.317 18.903,-42.22 42.22,-42.22c23.318,0 42.22,18.903 42.22,42.22Zm-203.318,-264.902l384.056,384.056m-345.479,-383.276l344.273,344.273m-416.692,-334.928l403.183,403.182m-422.102,-384.263l403.182,403.182m-413.294,-369.353l384.056,384.057m-383.284,-345.474l344.274,344.275m-105.561,-180.867c-0,8.584 -6.959,15.542 -15.543,15.542c-8.586,0 -15.544,-6.958 -15.544,-15.542c-0,-8.586 6.958,-15.545 15.544,-15.545c8.584,0 15.543,6.959 15.543,15.545Z" style="fill:none;fill-rule:nonzero;stroke:#c7c7c4;stroke-width:0.27px;"/><path d="M122.605,35.193l0,469.631m296.075,-469.631l0,469.631m-376.535,-383.627l456.696,0m-456.696,296.035l456.696,0m-472.341,-161.452l486.876,0m-486.876,26.894l486.876,0m-486.752,-13.451l486.876,-0m-33.684,0.001c0,115.506 -93.636,209.143 -209.142,209.143c-115.506,-0 -209.143,-93.637 -209.143,-209.143c0,-115.506 93.637,-209.144 209.143,-209.144c115.506,0 209.142,93.638 209.142,209.144Zm-209.172,-234.031l-0,469.631" style="fill:none;fill-rule:nonzero;stroke:#c7c7c4;stroke-width:0.27px;"/></g></svg>