<?xml version="1.0" encoding="UTF-8" standalone="no"?><!DOCTYPE svg PUBLIC "-//W3C//DTD SVG 1.1//EN" "http://www.w3.org/Graphics/SVG/1.1/DTD/svg11.dtd"><svg width="100%" height="100%" viewBox="0 0 125 29" version="1.1" xmlns="http://www.w3.org/2000/svg" xmlns:xlink="http://www.w3.org/1999/xlink" xml:space="preserve" xmlns:serif="http://www.serif.com/" style="fill-rule:evenodd;clip-rule:evenodd;stroke-linejoin:round;stroke-miterlimit:2;"><g id="SuamiSihat_Logo_Horizontal_FullColor"><g id="suamisihat-icon" serif:id="suamisihat icon"><path d="M24.571,4.291c-2.715,-2.719 -6.33,-4.216 -10.178,-4.216c-7.936,-0 -14.393,6.457 -14.393,14.393c0,0 -0.002,0.263 0.012,0.584c0.01,0.352 0.046,0.724 0.046,0.724l13.806,-0l1.659,1.66c0.59,0.589 0.59,1.548 0,2.137c-0.285,0.286 -0.665,0.443 -1.069,0.443c-0.403,0 -0.783,-0.157 -1.069,-0.443l-1.451,-1.451l-1.838,1.838l1.452,1.451c0.776,0.777 1.808,1.205 2.906,1.205c1.099,-0 2.131,-0.428 2.907,-1.205c1.603,-1.602 1.603,-4.211 0,-5.814l-1.446,-1.446l0.002,-0.001l-2.65,-2.649c-0.285,-0.286 -0.442,-0.665 -0.442,-1.069c-0,-0.404 0.157,-0.783 0.442,-1.069c0.286,-0.285 0.665,-0.443 1.069,-0.443c0.404,0 0.784,0.158 1.069,0.443l1.452,1.452l1.838,-1.838l-1.452,-1.452c-0.776,-0.777 -1.809,-1.204 -2.907,-1.204c-1.098,-0 -2.13,0.427 -2.907,1.204c-0.776,0.776 -1.204,1.809 -1.204,2.907c-0,1.016 0.367,1.976 1.037,2.729l-8.575,-0c0.314,-2.826 1.643,-5.439 3.757,-7.376c2.178,-1.996 5.001,-3.095 7.949,-3.095c3.149,-0 6.107,1.225 8.329,3.45l0.001,0.001l1.849,-1.85l-0.001,-0Z" style="fill:#020202;fill-rule:nonzero;"/><path d="M22.347,23.152c-2.179,1.995 -5.002,3.094 -7.95,3.094c-3.149,0 -6.106,-1.225 -8.328,-3.449l-0.001,-0.001l-1.849,1.849l0.001,0.001c2.715,2.718 6.329,4.215 10.177,4.215c7.937,0 14.394,-6.457 14.394,-14.393c-0,0 0.002,-0.262 -0.012,-0.583c-0.011,-0.352 -0.047,-0.724 -0.047,-0.724l-9.53,-0l2.615,2.615l4.287,-0c-0.314,2.826 -1.643,5.439 -3.757,7.376" style="fill:#038af9;fill-rule:nonzero;"/></g><path d="M40.504,19.773c-2.355,0 -4.196,-1.17 -4.274,-3.385l2.839,0c0.078,0.842 0.609,1.248 1.357,1.248c0.78,0 1.279,-0.39 1.279,-1.029c0,-2.028 -5.475,-0.936 -5.444,-4.82c0,-2.075 1.701,-3.229 3.994,-3.229c2.386,-0 3.993,1.185 4.102,3.275l-2.886,0c-0.046,-0.702 -0.545,-1.123 -1.263,-1.138c-0.64,-0.016 -1.123,0.312 -1.123,0.998c-0,1.903 5.413,1.045 5.413,4.711c-0,1.84 -1.435,3.369 -3.994,3.369" style="fill:#020202;fill-rule:nonzero;"/><path d="M54.34,19.664l-2.667,-0l-0,-1.186c-0.531,0.749 -1.467,1.28 -2.637,1.28c-2.012,-0 -3.369,-1.389 -3.369,-3.713l-0,-5.085l2.652,-0l-0,4.726c-0,1.186 0.671,1.841 1.669,1.841c1.03,-0 1.685,-0.655 1.685,-1.841l-0,-4.726l2.667,-0l0,8.704Z" style="fill:#020202;fill-rule:nonzero;"/><path d="M59.955,13.159c-0.998,0 -1.903,0.749 -1.903,2.137c0,1.389 0.905,2.169 1.903,2.169c1.014,-0 1.903,-0.765 1.903,-2.153c0,-1.389 -0.889,-2.153 -1.903,-2.153m-0.78,-2.324c1.295,-0 2.216,0.593 2.683,1.357l0,-1.232l2.668,-0l-0,8.704l-2.668,-0l0,-1.232c-0.483,0.764 -1.403,1.357 -2.698,1.357c-2.122,-0 -3.822,-1.747 -3.822,-4.493c0,-2.745 1.7,-4.461 3.837,-4.461" style="fill:#020202;fill-rule:nonzero;"/><path d="M78.065,14.938c0,-1.139 -0.655,-1.763 -1.669,-1.763c-1.014,-0 -1.669,0.624 -1.669,1.763l0,4.726l-2.652,-0l0,-4.726c0,-1.139 -0.655,-1.763 -1.669,-1.763c-1.014,-0 -1.669,0.624 -1.669,1.763l-0,4.726l-2.667,-0l-0,-8.704l2.667,-0l-0,1.092c0.515,-0.702 1.404,-1.186 2.543,-1.186c1.31,0 2.371,0.577 2.963,1.623c0.578,-0.921 1.67,-1.623 2.933,-1.623c2.153,0 3.541,1.373 3.541,3.713l0,5.085l-2.652,-0l0,-4.726Z" style="fill:#020202;fill-rule:nonzero;"/><path d="M82.198,10.96l2.668,-0l-0,8.704l-2.668,0l0,-8.704Zm-0.249,-2.34c-0,-0.811 0.639,-1.451 1.591,-1.451c0.936,0 1.575,0.64 1.575,1.451c0,0.795 -0.639,1.435 -1.575,1.435c-0.952,-0 -1.591,-0.64 -1.591,-1.435" style="fill:#020202;fill-rule:nonzero;"/><path d="M90.372,19.773c-2.356,0 -4.196,-1.17 -4.274,-3.385l2.839,0c0.078,0.842 0.608,1.248 1.357,1.248c0.78,0 1.279,-0.39 1.279,-1.029c0,-2.028 -5.475,-0.936 -5.444,-4.82c-0,-2.075 1.7,-3.229 3.993,-3.229c2.387,-0 3.994,1.185 4.103,3.275l-2.886,0c-0.047,-0.702 -0.546,-1.123 -1.263,-1.138c-0.64,-0.016 -1.124,0.312 -1.124,0.998c0,1.903 5.413,1.045 5.413,4.711c0,1.84 -1.435,3.369 -3.993,3.369" style="fill:#020202;fill-rule:nonzero;"/><path d="M95.613,10.96l2.667,-0l0,8.704l-2.667,0l-0,-8.704Zm-0.25,-2.34c0,-0.811 0.64,-1.451 1.591,-1.451c0.936,0 1.576,0.64 1.576,1.451c-0,0.795 -0.64,1.435 -1.576,1.435c-0.951,-0 -1.591,-0.64 -1.591,-1.435" style="fill:#020202;fill-rule:nonzero;"/><path d="M99.824,8.121l2.668,-0l-0,4.009c0.53,-0.749 1.482,-1.264 2.683,-1.264c1.981,0 3.307,1.373 3.307,3.713l-0,5.085l-2.652,-0l-0,-4.727c-0,-1.185 -0.655,-1.84 -1.669,-1.84c-1.014,-0 -1.669,0.655 -1.669,1.84l-0,4.727l-2.668,-0l0,-11.543Z" style="fill:#020202;fill-rule:nonzero;"/><path d="M114.035,13.159c-0.999,0 -1.904,0.749 -1.904,2.137c0,1.389 0.905,2.169 1.904,2.169c1.014,-0 1.903,-0.765 1.903,-2.153c-0,-1.389 -0.889,-2.153 -1.903,-2.153m-0.78,-2.324c1.294,-0 2.215,0.593 2.683,1.357l-0,-1.232l2.667,-0l0,8.704l-2.667,-0l-0,-1.232c-0.484,0.764 -1.404,1.357 -2.699,1.357c-2.121,-0 -3.822,-1.747 -3.822,-4.493c0,-2.745 1.701,-4.461 3.838,-4.461" style="fill:#020202;fill-rule:nonzero;"/><path d="M120.57,13.175l-1.061,-0l0,-2.215l1.061,-0l-0,-2.122l2.667,0l0,2.122l1.748,-0l-0,2.215l-1.748,-0l0,3.494c0,0.515 0.219,0.733 0.812,0.733l0.951,0l-0,2.262l-1.357,-0c-1.81,-0 -3.073,-0.764 -3.073,-3.026l-0,-3.463Z" style="fill:#020202;fill-rule:nonzero;"/></g></svg>