<?xml version="1.0" encoding="UTF-8" standalone="no"?><!DOCTYPE svg PUBLIC "-//W3C//DTD SVG 1.1//EN" "http://www.w3.org/Graphics/SVG/1.1/DTD/svg11.dtd"><svg width="100%" height="100%" viewBox="0 0 1080 1080" version="1.1" xmlns="http://www.w3.org/2000/svg" xmlns:xlink="http://www.w3.org/1999/xlink" xml:space="preserve" xmlns:serif="http://www.serif.com/" style="fill-rule:evenodd;clip-rule:evenodd;stroke-miterlimit:10;"><rect id="ss-logo-skecth" x="0" y="0" width="1080" height="1080" style="fill:none;"/><clipPath id="_clip1"><rect x="0" y="0" width="1080" height="1080"/></clipPath><g clip-path="url(#_clip1)"><g id="suamisihat-skecth"><g><path d="M773.535,306.174c-61.919,-61.99 -144.339,-96.126 -232.083,-96.126c-180.98,0 -328.221,147.24 -328.221,328.217c0,0 -0.049,5.985 0.266,13.306c0.244,8.026 1.064,16.508 1.064,16.508l314.812,-0l37.846,37.846c13.438,13.441 13.438,35.311 0,48.751c-6.511,6.512 -15.167,10.095 -24.377,10.095c-9.207,0 -17.862,-3.583 -24.374,-10.095l-33.107,-33.106l-41.914,41.917l33.107,33.104c17.707,17.71 41.249,27.461 66.288,27.461c25.042,0 48.585,-9.751 66.291,-27.461c36.552,-36.552 36.552,-96.028 0,-132.58l-32.976,-32.976l0.025,-0.028l-60.409,-60.413c-6.512,-6.508 -10.098,-15.167 -10.098,-24.374c-0,-9.207 3.586,-17.862 10.098,-24.373c6.512,-6.512 15.167,-10.099 24.374,-10.099c9.207,0 17.862,3.587 24.374,10.099l33.106,33.103l41.914,-41.914l-33.103,-33.107c-17.706,-17.706 -41.249,-27.458 -66.291,-27.458c-25.043,-0 -48.585,9.752 -66.292,27.458c-17.706,17.707 -27.458,41.249 -27.458,66.291c0,23.179 8.365,45.059 23.649,62.231l-195.539,0c7.159,-64.448 37.461,-124.03 85.668,-168.204c49.67,-45.504 114.048,-70.571 181.277,-70.571c71.802,-0 139.25,27.939 189.918,78.671l0.018,0.017l42.169,-42.168l-0.022,-0.022Z" style="fill:#d1d3d4;fill-rule:nonzero;"/></g><g><path d="M722.814,736.273c-49.671,45.507 -114.048,70.571 -181.274,70.571c-71.805,-0 -139.253,-27.936 -189.918,-78.671l-0.018,-0.018l-42.168,42.169l0.017,0.021c61.92,61.99 144.344,96.13 232.087,96.13c180.977,0 328.217,-147.24 328.217,-328.221c0,0 0.05,-5.981 -0.265,-13.306c-0.244,-8.025 -1.065,-16.507 -1.065,-16.507l-217.312,-0l59.627,59.631l97.743,-0c-7.159,64.448 -37.464,124.026 -85.671,168.201" style="fill:#ededed;fill-rule:nonzero;"/></g><g><path d="M920.376,159.383l-763.67,763.671m749.907,-777.055l-763.479,763.479m632.039,-829.979l-696.463,696.466m754.881,-671.979l-728.699,728.7m870.871,-586.528l-728.7,728.699m752.349,-668.29l-696.467,696.463m630.833,-829.866l-763.479,763.479m699.465,-398.385c0,181.299 -146.971,328.27 -328.27,328.27c-181.298,0 -328.27,-146.971 -328.27,-328.27c0,-181.295 146.972,-328.267 328.27,-328.267c181.299,0 328.27,146.972 328.27,328.267Zm-59.638,0c0,148.365 -120.27,268.635 -268.632,268.635c-148.361,0 -268.631,-120.27 -268.631,-268.635c-0,-148.362 120.27,-268.632 268.631,-268.632c148.362,0 268.632,120.27 268.632,268.632Zm-176.559,-92.264c0,51.708 -41.921,93.626 -93.629,93.626c-51.712,-0 -93.629,-41.918 -93.629,-93.626c-0,-51.712 41.917,-93.629 93.629,-93.629c51.708,-0 93.629,41.917 93.629,93.629Zm-58.969,0.255c-0,19.036 -15.432,34.468 -34.472,34.468c-19.037,0 -34.469,-15.432 -34.469,-34.468c0,-19.037 15.432,-34.469 34.469,-34.469c19.04,0 34.472,15.432 34.472,34.469Zm61.919,184.167c0,51.712 -41.917,93.629 -93.629,93.629c-51.708,0 -93.629,-41.917 -93.629,-93.629c-0,-51.708 41.921,-93.629 93.629,-93.629c51.712,-0 93.629,41.921 93.629,93.629Zm-450.889,-587.462l851.704,851.704m-766.153,-849.974l763.479,763.479m-924.079,-742.756l894.12,894.121m-936.076,-852.164l894.12,894.12m-916.545,-819.099l851.704,851.707m-849.992,-766.142l763.483,763.482m-234.1,-401.101c-0,19.036 -15.432,34.469 -34.469,34.469c-19.04,-0 -34.472,-15.433 -34.472,-34.469c0,-19.04 15.432,-34.472 34.472,-34.472c19.037,-0 34.469,15.432 34.469,34.472Z" style="fill:none;fill-rule:nonzero;stroke:#c7c7c4;stroke-width:0.53px;"/></g><g><path d="M213.129,19.26l-0,1041.48m656.593,-1041.48l0,1041.48m-835.027,-850.752l1012.8,-0m-1012.8,656.505l1012.8,-0m-1047.49,-358.045l1079.72,-0m-1079.72,59.641l1079.72,0m-1079.45,-29.831l1079.72,0m-74.699,0.004c-0,256.153 -207.653,463.806 -463.807,463.806c-256.153,-0 -463.806,-207.653 -463.806,-463.806c0,-256.154 207.653,-463.81 463.806,-463.81c256.154,-0 463.807,207.656 463.807,463.81Zm-463.874,-519.002l0,1041.48" style="fill:none;fill-rule:nonzero;stroke:#c7c7c4;stroke-width:0.53px;"/></g></g></g></svg>