<?xml version="1.0" encoding="UTF-8" standalone="no"?><!DOCTYPE svg PUBLIC "-//W3C//DTD SVG 1.1//EN" "http://www.w3.org/Graphics/SVG/1.1/DTD/svg11.dtd"><svg width="100%" height="100%" viewBox="0 0 125 29" version="1.1" xmlns="http://www.w3.org/2000/svg" xmlns:xlink="http://www.w3.org/1999/xlink" xml:space="preserve" xmlns:serif="http://www.serif.com/" style="fill-rule:evenodd;clip-rule:evenodd;stroke-linejoin:round;stroke-miterlimit:2;"><g id="SuamiSihat_Logo_Horizontal_White"><g id="suamisihat-icon" serif:id="suamisihat icon"><path d="M24.571,4.222c-2.715,-2.718 -6.33,-4.215 -10.178,-4.215c-7.936,-0 -14.393,6.457 -14.393,14.393c0,0 -0.002,0.263 0.012,0.584c0.01,0.352 0.046,0.724 0.046,0.724l13.806,-0l1.659,1.659c0.59,0.59 0.59,1.549 0,2.138c-0.285,0.286 -0.665,0.443 -1.069,0.443c-0.403,-0 -0.783,-0.157 -1.069,-0.443l-1.451,-1.452l-1.838,1.839l1.452,1.451c0.776,0.777 1.808,1.204 2.906,1.204c1.099,0 2.131,-0.427 2.907,-1.204c1.603,-1.603 1.603,-4.211 0,-5.814l-1.446,-1.446l0.002,-0.001l-2.65,-2.649c-0.285,-0.286 -0.442,-0.665 -0.442,-1.069c-0,-0.404 0.157,-0.784 0.442,-1.069c0.286,-0.286 0.665,-0.443 1.069,-0.443c0.404,0 0.784,0.157 1.069,0.443l1.452,1.452l1.838,-1.839l-1.452,-1.451c-0.776,-0.777 -1.809,-1.204 -2.907,-1.204c-1.098,-0 -2.13,0.427 -2.907,1.204c-0.776,0.776 -1.204,1.809 -1.204,2.907c-0,1.016 0.367,1.976 1.037,2.729l-8.575,-0c0.314,-2.827 1.643,-5.439 3.757,-7.376c2.178,-1.996 5.001,-3.095 7.949,-3.095c3.149,-0 6.107,1.225 8.329,3.45l0.001,0l1.849,-1.849l-0.001,-0.001Z" style="fill:#fff;fill-rule:nonzero;"/><path d="M22.347,23.083c-2.179,1.996 -5.002,3.095 -7.95,3.095c-3.149,0 -6.106,-1.225 -8.328,-3.45l-0.001,-0l-1.849,1.849l0.001,0.001c2.715,2.718 6.329,4.215 10.177,4.215c7.937,0 14.394,-6.457 14.394,-14.393c-0,-0 0.002,-0.262 -0.012,-0.584c-0.011,-0.352 -0.047,-0.724 -0.047,-0.724l-9.53,0l2.615,2.615l4.287,0c-0.314,2.827 -1.643,5.439 -3.757,7.376" style="fill:#fff;fill-rule:nonzero;"/></g><path d="M40.504,19.705c-2.355,-0 -4.196,-1.17 -4.274,-3.385l2.839,-0c0.078,0.842 0.609,1.248 1.357,1.248c0.78,-0 1.279,-0.39 1.279,-1.03c0,-2.027 -5.475,-0.936 -5.444,-4.82c0,-2.074 1.701,-3.229 3.994,-3.229c2.386,0 3.993,1.186 4.102,3.276l-2.886,0c-0.046,-0.702 -0.545,-1.123 -1.263,-1.139c-0.64,-0.015 -1.123,0.312 -1.123,0.999c-0,1.903 5.413,1.045 5.413,4.71c-0,1.841 -1.435,3.37 -3.994,3.37" style="fill:#fff;fill-rule:nonzero;"/><path d="M54.34,19.596l-2.667,-0l-0,-1.186c-0.531,0.749 -1.467,1.279 -2.637,1.279c-2.012,0 -3.369,-1.388 -3.369,-3.712l-0,-5.085l2.652,-0l-0,4.726c-0,1.186 0.671,1.841 1.669,1.841c1.03,-0 1.685,-0.655 1.685,-1.841l-0,-4.726l2.667,-0l0,8.704Z" style="fill:#fff;fill-rule:nonzero;"/><path d="M59.955,13.091c-0.998,-0 -1.903,0.749 -1.903,2.137c0,1.388 0.905,2.168 1.903,2.168c1.014,0 1.903,-0.764 1.903,-2.152c0,-1.389 -0.889,-2.153 -1.903,-2.153m-0.78,-2.324c1.295,-0 2.216,0.593 2.683,1.357l0,-1.232l2.668,-0l-0,8.704l-2.668,-0l0,-1.233c-0.483,0.765 -1.403,1.358 -2.698,1.358c-2.122,-0 -3.822,-1.748 -3.822,-4.493c0,-2.745 1.7,-4.461 3.837,-4.461" style="fill:#fff;fill-rule:nonzero;"/><path d="M78.065,14.869c0,-1.138 -0.655,-1.762 -1.669,-1.762c-1.014,-0 -1.669,0.624 -1.669,1.762l0,4.727l-2.652,-0l0,-4.727c0,-1.138 -0.655,-1.762 -1.669,-1.762c-1.014,-0 -1.669,0.624 -1.669,1.762l-0,4.727l-2.667,-0l-0,-8.704l2.667,-0l-0,1.092c0.515,-0.703 1.404,-1.186 2.543,-1.186c1.31,-0 2.371,0.577 2.963,1.622c0.578,-0.92 1.67,-1.622 2.933,-1.622c2.153,-0 3.541,1.373 3.541,3.712l0,5.086l-2.652,-0l0,-4.727Z" style="fill:#fff;fill-rule:nonzero;"/><path d="M82.198,10.892l2.668,-0l-0,8.704l-2.668,-0l0,-8.704Zm-0.249,-2.34c-0,-0.811 0.639,-1.451 1.591,-1.451c0.936,0 1.575,0.64 1.575,1.451c0,0.795 -0.639,1.435 -1.575,1.435c-0.952,-0 -1.591,-0.64 -1.591,-1.435" style="fill:#fff;fill-rule:nonzero;"/><path d="M90.372,19.705c-2.356,-0 -4.196,-1.17 -4.274,-3.385l2.839,-0c0.078,0.842 0.608,1.248 1.357,1.248c0.78,-0 1.279,-0.39 1.279,-1.03c0,-2.027 -5.475,-0.936 -5.444,-4.82c-0,-2.074 1.7,-3.229 3.993,-3.229c2.387,0 3.994,1.186 4.103,3.276l-2.886,0c-0.047,-0.702 -0.546,-1.123 -1.263,-1.139c-0.64,-0.015 -1.124,0.312 -1.124,0.999c0,1.903 5.413,1.045 5.413,4.71c0,1.841 -1.435,3.37 -3.993,3.37" style="fill:#fff;fill-rule:nonzero;"/><path d="M95.613,10.892l2.667,-0l0,8.704l-2.667,-0l-0,-8.704Zm-0.25,-2.34c0,-0.811 0.64,-1.451 1.591,-1.451c0.936,0 1.576,0.64 1.576,1.451c-0,0.795 -0.64,1.435 -1.576,1.435c-0.951,-0 -1.591,-0.64 -1.591,-1.435" style="fill:#fff;fill-rule:nonzero;"/><path d="M99.824,8.053l2.668,-0l-0,4.008c0.53,-0.748 1.482,-1.263 2.683,-1.263c1.981,-0 3.307,1.373 3.307,3.712l-0,5.086l-2.652,-0l-0,-4.727c-0,-1.185 -0.655,-1.84 -1.669,-1.84c-1.014,-0 -1.669,0.655 -1.669,1.84l-0,4.727l-2.668,-0l0,-11.543Z" style="fill:#fff;fill-rule:nonzero;"/><path d="M114.035,13.091c-0.999,-0 -1.904,0.749 -1.904,2.137c0,1.388 0.905,2.168 1.904,2.168c1.014,0 1.903,-0.764 1.903,-2.152c-0,-1.389 -0.889,-2.153 -1.903,-2.153m-0.78,-2.324c1.294,-0 2.215,0.593 2.683,1.357l-0,-1.232l2.667,-0l0,8.704l-2.667,-0l-0,-1.233c-0.484,0.765 -1.404,1.358 -2.699,1.358c-2.121,-0 -3.822,-1.748 -3.822,-4.493c0,-2.745 1.701,-4.461 3.838,-4.461" style="fill:#fff;fill-rule:nonzero;"/><path d="M120.57,13.107l-1.061,-0l0,-2.215l1.061,-0l-0,-2.122l2.667,0l0,2.122l1.748,-0l-0,2.215l-1.748,-0l0,3.494c0,0.514 0.219,0.733 0.812,0.733l0.951,-0l-0,2.262l-1.357,-0c-1.81,-0 -3.073,-0.765 -3.073,-3.026l-0,-3.463Z" style="fill:#fff;fill-rule:nonzero;"/></g></svg>