<?xml version="1.0" encoding="UTF-8" standalone="no"?><!DOCTYPE svg PUBLIC "-//W3C//DTD SVG 1.1//EN" "http://www.w3.org/Graphics/SVG/1.1/DTD/svg11.dtd"><svg width="100%" height="100%" viewBox="0 0 126 108" version="1.1" xmlns="http://www.w3.org/2000/svg" xmlns:xlink="http://www.w3.org/1999/xlink" xml:space="preserve" xmlns:serif="http://www.serif.com/" style="fill-rule:evenodd;clip-rule:evenodd;stroke-linejoin:round;stroke-miterlimit:2;"><g id="SuamiSihat_Logo_Vertical_White"><path d="M91.222,12.274c-7.647,-7.656 -17.826,-11.872 -28.663,-11.872c-22.351,0 -40.535,18.185 -40.535,40.536c-0,-0 -0.006,0.739 0.033,1.643c0.03,0.991 0.131,2.039 0.131,2.039l38.879,-0l4.675,4.674c1.66,1.66 1.66,4.361 -0,6.021c-0.805,0.804 -1.873,1.246 -3.011,1.246c-1.137,0 -2.206,-0.442 -3.01,-1.246l-4.089,-4.089l-5.176,5.177l4.088,4.088c2.187,2.187 5.095,3.392 8.187,3.392c3.093,-0 6,-1.205 8.187,-3.392c4.515,-4.514 4.515,-11.859 0,-16.374l-4.072,-4.072l0.003,-0.004l-7.461,-7.461c-0.804,-0.804 -1.247,-1.873 -1.247,-3.01c-0,-1.137 0.443,-2.206 1.247,-3.01c0.804,-0.804 1.873,-1.247 3.01,-1.247c1.137,0 2.206,0.443 3.011,1.247l4.088,4.088l5.177,-5.176l-4.089,-4.089c-2.186,-2.187 -5.094,-3.391 -8.187,-3.391c-3.092,0 -6,1.204 -8.187,3.391c-2.187,2.187 -3.391,5.095 -3.391,8.187c-0,2.862 1.033,5.565 2.921,7.686l-24.15,-0c0.884,-7.96 4.627,-15.318 10.581,-20.774c6.134,-5.62 14.085,-8.715 22.387,-8.715c8.868,-0 17.198,3.45 23.456,9.716l0.002,0.002l5.208,-5.208l-0.003,-0.003Z" style="fill:#fff;fill-rule:nonzero;"/><path d="M84.958,65.392c-6.135,5.62 -14.085,8.716 -22.388,8.716c-8.868,-0 -17.198,-3.45 -23.455,-9.716l-0.002,-0.002l-5.208,5.208l0.002,0.002c7.647,7.656 17.827,11.872 28.663,11.872c22.351,0 40.536,-18.184 40.536,-40.535c-0,-0 0.006,-0.739 -0.033,-1.644c-0.03,-0.991 -0.132,-2.038 -0.132,-2.038l-26.838,-0l7.364,7.364l12.071,0c-0.884,7.959 -4.627,15.318 -10.58,20.773" style="fill:#fff;fill-rule:nonzero;"/><path d="M6.083,107.376c-3.317,-0 -5.909,-1.648 -6.018,-4.767l3.997,0c0.11,1.186 0.857,1.757 1.911,1.757c1.099,0 1.802,-0.549 1.802,-1.449c-0,-2.856 -7.71,-1.318 -7.666,-6.788c-0,-2.921 2.394,-4.547 5.623,-4.547c3.36,0 5.623,1.67 5.777,4.613l-4.064,0c-0.066,-0.988 -0.769,-1.581 -1.779,-1.603c-0.901,-0.022 -1.582,0.439 -1.582,1.405c0,2.68 7.622,1.472 7.622,6.634c0,2.592 -2.02,4.745 -5.623,4.745" style="fill:#fff;fill-rule:nonzero;"/><path d="M25.566,107.222l-3.756,-0l-0,-1.669c-0.747,1.054 -2.065,1.801 -3.712,1.801c-2.834,-0 -4.745,-1.955 -4.745,-5.228l0,-7.161l3.734,0l0,6.656c0,1.669 0.945,2.592 2.351,2.592c1.449,-0 2.372,-0.923 2.372,-2.592l-0,-6.656l3.756,0l-0,12.257Z" style="fill:#fff;fill-rule:nonzero;"/><path d="M33.473,98.062c-1.406,0 -2.68,1.055 -2.68,3.01c0,1.954 1.274,3.053 2.68,3.053c1.428,-0 2.68,-1.077 2.68,-3.031c-0,-1.955 -1.252,-3.032 -2.68,-3.032m-1.098,-3.272c1.823,-0 3.119,0.834 3.778,1.91l-0,-1.735l3.756,0l-0,12.257l-3.756,-0l-0,-1.735c-0.681,1.076 -1.977,1.911 -3.8,1.911c-2.988,-0 -5.382,-2.461 -5.382,-6.326c0,-3.866 2.394,-6.282 5.404,-6.282" style="fill:#fff;fill-rule:nonzero;"/><path d="M58.974,100.566c0,-1.603 -0.922,-2.482 -2.35,-2.482c-1.428,0 -2.351,0.879 -2.351,2.482l0,6.656l-3.734,-0l0,-6.656c0,-1.603 -0.922,-2.482 -2.35,-2.482c-1.428,0 -2.35,0.879 -2.35,2.482l-0,6.656l-3.756,-0l-0,-12.257l3.756,0l-0,1.538c0.725,-0.989 1.977,-1.67 3.58,-1.67c1.845,0 3.339,0.813 4.173,2.285c0.813,-1.296 2.351,-2.285 4.13,-2.285c3.031,0 4.986,1.933 4.986,5.228l0,7.161l-3.734,-0l0,-6.656Z" style="fill:#fff;fill-rule:nonzero;"/><path d="M64.794,94.965l3.756,0l0,12.257l-3.756,-0l0,-12.257Zm-0.352,-3.295c0,-1.142 0.901,-2.042 2.241,-2.042c1.318,-0 2.218,0.9 2.218,2.042c0,1.12 -0.9,2.021 -2.218,2.021c-1.34,0 -2.241,-0.901 -2.241,-2.021" style="fill:#fff;fill-rule:nonzero;"/><path d="M76.304,107.376c-3.317,-0 -5.909,-1.648 -6.019,-4.767l3.998,0c0.11,1.186 0.857,1.757 1.911,1.757c1.098,0 1.801,-0.549 1.801,-1.449c0,-2.856 -7.71,-1.318 -7.666,-6.788c-0,-2.921 2.394,-4.547 5.623,-4.547c3.361,0 5.623,1.67 5.777,4.613l-4.063,0c-0.066,-0.988 -0.769,-1.581 -1.78,-1.603c-0.9,-0.022 -1.581,0.439 -1.581,1.405c-0,2.68 7.622,1.472 7.622,6.634c-0,2.592 -2.021,4.745 -5.623,4.745" style="fill:#fff;fill-rule:nonzero;"/><path d="M83.684,94.965l3.756,0l-0,12.257l-3.756,-0l-0,-12.257Zm-0.352,-3.295c-0,-1.142 0.901,-2.042 2.24,-2.042c1.319,-0 2.219,0.9 2.219,2.042c-0,1.12 -0.9,2.021 -2.219,2.021c-1.339,0 -2.24,-0.901 -2.24,-2.021" style="fill:#fff;fill-rule:nonzero;"/><path d="M89.614,90.968l3.756,-0l0,5.645c0.747,-1.055 2.087,-1.78 3.778,-1.78c2.79,0 4.657,1.933 4.657,5.228l-0,7.161l-3.734,-0l-0,-6.656c-0,-1.669 -0.923,-2.592 -2.351,-2.592c-1.427,0 -2.35,0.923 -2.35,2.592l0,6.656l-3.756,-0l-0,-16.254Z" style="fill:#fff;fill-rule:nonzero;"/><path d="M109.624,98.062c-1.406,0 -2.68,1.055 -2.68,3.01c0,1.954 1.274,3.053 2.68,3.053c1.427,-0 2.68,-1.077 2.68,-3.031c-0,-1.955 -1.253,-3.032 -2.68,-3.032m-1.098,-3.272c1.823,-0 3.119,0.834 3.778,1.91l-0,-1.735l3.756,0l-0,12.257l-3.756,-0l-0,-1.735c-0.681,1.076 -1.977,1.911 -3.8,1.911c-2.988,-0 -5.382,-2.461 -5.382,-6.326c0,-3.866 2.394,-6.282 5.404,-6.282" style="fill:#fff;fill-rule:nonzero;"/><path d="M118.826,98.084l-1.493,0l-0,-3.119l1.493,0l0,-2.987l3.757,-0l-0,2.987l2.46,0l-0,3.119l-2.46,0l-0,4.92c-0,0.725 0.307,1.033 1.142,1.033l1.34,-0l-0,3.185l-1.911,-0c-2.548,-0 -4.328,-1.076 -4.328,-4.261l0,-4.877Z" style="fill:#fff;fill-rule:nonzero;"/></g></svg>